<svg xmlns="http://www.w3.org/2000/svg" xmlns:xlink="http://www.w3.org/1999/xlink" width="226" height="206" viewBox="0 0 226 206">
    <defs>
        <path id="a" d="M0 .872h225.404v204.196H0z"/>
        <path id="c" d="M.403.663h40.682V21.69H.403z"/>
        <path id="e" d="M.343.663h40.682V21.69H.343z"/>
        <path id="g" d="M.284.663h35.79V21.69H.285z"/>
        <path id="i" d="M.394 53.06l9.177 19.382 110.325-52.87L110.719.19z"/>
        <path id="k" d="M.394 53.06l9.177 19.382 110.325-52.87L110.719.19z"/>
        <path id="m" d="M.394 53.06l9.177 19.382 110.325-52.87L110.719.19z"/>
    </defs>
    <g fill="none" fill-rule="evenodd">
        <g>
            <mask id="b" fill="#fff">
                <use xlink:href="#a"/>
            </mask>
            <path fill="#E3F8FF" d="M48.867 203.376c-5.935 3.496-13.907 1.205-18.932-3.51-5.026-4.714-7.77-11.316-10.313-17.727-9.383-23.654-18.074-48.056-19.45-73.472-1.377-25.417 5.454-52.314 23.412-70.314 19.505-19.553 78.4-62.772 152.2-17.592 22.163 13.568 40.567 37.926 35.533 63.461-2.108 10.698-7.829 20.35-10.61 30.893-2.78 10.541-1.725 23.48 7.03 29.955 6.686 4.946 11.187 8.102 15.75 15.062 4.035 6.159 1.21 14.703-3.938 19.96-31.377 32.039-53.136 18.523-73.275 17.584-20.138-.938-41.086-10.1-50.754-27.831" mask="url(#b)"/>
        </g>
        <path fill="#FFF" d="M172.37 200.112H52.647c-.677 0-1.226-.55-1.226-1.229v-91.947c0-.679.549-1.229 1.226-1.229H172.37c.677 0 1.226.55 1.226 1.229v91.947c0 .68-.549 1.229-1.226 1.229"/>
        <path fill="#2D528B" d="M52.647 200.244c0 .056-.08.18-.543.096a1.452 1.452 0 0 1-.841-.587 1.588 1.588 0 0 1-.285-.779l-.04-.819c-.097-2.372-.182-6.83-.278-15.176-.095-8.396-.328-30.398-.257-35.26.07-4.86-.004-9.433-.003-14.21v-5.703l.006-11.298.001-5.455V107.086l.001-.173c.005-.098.007-.197.024-.295.025-.195.083-.386.159-.57a2.24 2.24 0 0 1 2.073-1.356H56.176c1.915.002 4.284.003 7.04.003l20.623.01a989743.054 989743.054 0 0 1 84.683.042h3.39l.42.002c.184-.003.477.027.701.103a2.174 2.174 0 0 1 1.454 1.557c.062.212.07.556.065.642v.826c0 2.198-.002 4.344-.003 6.436l-.004 11.788-.001 25.168.037 10.214c-.023 7.795-.008 9.773-.077 15.335-.094 7.677-.219 13.676-.355 17.756l-.103 2.697-.053 1.07-.027.465a1.723 1.723 0 0 1-.086.507c-.233.65-.743.897-1.041.958-.315.064-.47 0-.469-.027-.002-.041.156-.056.406-.179a1.26 1.26 0 0 0 .683-.89c-.003-1.005-.144-2.62-.208-4.657-.164-4.099-.317-10.1-.411-17.714-.137-11.028-.251-19.149-.254-36.808-.001-3.212-.046-18.635 0-22.423l.029-6.556a5106.365 5106.365 0 0 0 .014-3.921c0-.19-.001-.189-.007-.218a.213.213 0 0 0-.033-.085c-.127-.122 0-.13-.842-.125l-8.39-.027-44.303-.129c-16.084-.044-32.248-.086-44.779-.121l-15.608-.038-4.89-.01c-.593.01-1.261-.034-1.337.035a.583.583 0 0 0-.325.29.61.61 0 0 0-.064.298v1.837l-.001 2.515-.004 5.221-.01 10.993-.026 22.449c-.015 14.51-.018 27.223.028 32.844.046 5.622-.068 10.119-.23 13.21-.05.772-.092 1.457-.13 2.051l-.066.817c-.019.211.027.412.106.578.364.678.963.673.929.763"/>
        <path fill="#FFF" d="M160.616 53.578l-108.088 51.6a1.224 1.224 0 0 1-1.635-.581l-8.12-17.085a1.231 1.231 0 0 1 .58-1.639l108.088-51.6a1.227 1.227 0 0 1 1.635.582l8.12 17.085a1.23 1.23 0 0 1-.58 1.638"/>
        <g>
            <g transform="translate(50 106)">
                <mask id="d" fill="#fff">
                    <use xlink:href="#c"/>
                </mask>
                <path fill="#A7E3FF" d="M18.541 41.124L.403 32.762l22.544-47.373 18.138 8.363z" mask="url(#d)"/>
            </g>
            <g transform="translate(92.84 106)">
                <mask id="f" fill="#fff">
                    <use xlink:href="#e"/>
                </mask>
                <path fill="#A7E3FF" d="M18.482 41.124L.342 32.762l22.545-47.373 18.138 8.363z" mask="url(#f)"/>
            </g>
            <g transform="translate(135.68 106)">
                <mask id="h" fill="#fff">
                    <use xlink:href="#g"/>
                </mask>
                <path fill="#A7E3FF" d="M18.422 41.124L.284 32.762l22.544-47.373 18.137 8.363z" mask="url(#h)"/>
            </g>
        </g>
        <g>
            <g transform="translate(42 33)">
                <mask id="j" fill="#fff">
                    <use xlink:href="#i"/>
                </mask>
                <path fill="#A7E3FF" d="M35.3 82.09l-20.005.13-.343-53.409 20.006-.129z" mask="url(#j)"/>
            </g>
            <g transform="translate(42 33)">
                <mask id="l" fill="#fff">
                    <use xlink:href="#k"/>
                </mask>
                <path fill="#A7E3FF" d="M73.88 63.602l-20.006.13-.344-53.408 20.006-.13z" mask="url(#l)"/>
            </g>
            <g transform="translate(42 33)">
                <mask id="n" fill="#fff">
                    <use xlink:href="#m"/>
                </mask>
                <path fill="#A7E3FF" d="M112.457 45.115l-20.006.13-.343-53.409 20.006-.13z" mask="url(#n)"/>
            </g>
        </g>
        <g>
            <path fill="#2D528B" d="M160.68 54.001c.063.132-.126.342-2.042 1.361-1.914 1.02-5.557 2.847-12.4 6.21-6.885 3.385-24.936 12.235-28.977 14.081-4.041 1.845-7.78 3.709-11.721 5.583l-4.707 2.24-18.164 8.64-26.444 12.573c-.832.397-1.678.8-2.535 1.206l-.645.307c-.368.179-.833.263-1.262.201a2.22 2.22 0 0 1-1.176-.535c-.332-.263-.58-.781-.637-.922l-2.574-5.408-5.46-11.48c-.414-.903-.114-2.056.695-2.647.1-.072.203-.14.313-.195l.215-.105.37-.177.744-.353 2.994-1.424 6.056-2.879 12.236-5.817c32.617-15.514 63.972-30.427 65.128-30.978l8.41-4.046c3.22-1.52 5.239-2.476 7.026-3.32l2.634-1.235c.45-.21.918-.425 1.417-.658l.774-.356c.083-.043.414-.19.654-.22.263-.047.54-.042.81.014a2.138 2.138 0 0 1 1.353.944c.05.076.092.165.13.239l.067.145.525 1.147 1.003 2.194 1.803 3.984 2.785 6.29.966 2.268.373.904c.1.243.258.591.246.907-.009.628-.348 1.004-.577 1.169-.243.165-.395.174-.406.148-.018-.035.102-.115.265-.31.154-.192.348-.546.276-.998-.027-.224-.165-.429-.317-.7l-.48-.865-1.178-2.183a396.31 396.31 0 0 1-3.172-6.116l-1.964-3.894-1.07-2.145-.556-1.121-.068-.134c-.012-.016-.02-.038-.034-.054-.021-.036-.054-.062-.084-.09a.482.482 0 0 0-.404-.094c-.064.017-.073.02-.25.107l-.83.41-1.628.802-3.194 1.573-6.562 3.213a2161.455 2161.455 0 0 1-17.202 8.274c-2.649 1.262-15.354 7.36-18.498 8.806A1322553.116 1322553.116 0 0 1 44.2 86.575c-.531.247-.565.257-.647.432a.432.432 0 0 0-.03.243c.005.044.02.075.04.126l.146.31 1.17 2.473 4.58 9.684 2.181 4.606c.081.153.248.252.422.258a.518.518 0 0 0 .272-.065l.562-.265 2.217-1.048 8.297-3.921c10.373-4.907 17.739-8.39 19.024-8.999 21.125-10.057 53.85-25.52 63.085-30.018 4.617-2.25 8.376-3.913 10.997-4.98 2.62-1.069 4.102-1.542 4.164-1.41M51.496 128.545c0-.29.448-.436 6.989-.628 3.29-.095 11.911-.327 13.816-.257 1.905.07 3.696-.004 5.568-.003l2.234.001c2.995.003 5.937.007 8.628.007 5.889 0 64.354.087 65.453.066 1.097-.022 2.96-.047 4.002-.038 3.054.024 3.83.009 6.008.077 6.017.188 9.402.498 9.402.775s-3.44.7-9.407.888c-4.32.136-7.503.25-14.423.253-1.259.001-7.302.046-8.786 0-1.442-.044-50.034-.38-52.474-.38-10.034 0-25.556-.105-29.962-.012-4.404.09-7.048-.457-7.048-.749"/>
            <path fill="#21346A" d="M100.54 150.846a3.62 3.62 0 1 1-7.24-.002 3.62 3.62 0 0 1 7.24.002M129.852 150.846a3.62 3.62 0 1 1-7.241-.002 3.62 3.62 0 0 1 7.24.002M116.947 174.642c0 4.411-2.617 7.988-5.847 7.988-3.229 0-5.847-3.577-5.847-7.988 0-4.411 2.618-7.988 5.847-7.988 3.23 0 5.847 3.577 5.847 7.988"/>
            <path fill="#2D528B" d="M33.874 200.101c4.465-.106 16.166-.366 18.751-.3 2.586.063 5.017-.017 7.558-.022l3.033-.006c4.064-.007 8.057-.012 11.709-.02 7.993-.02 87.347-.119 88.837-.143a318.72 318.72 0 0 1 5.432-.051c4.145.014 5.197-.004 8.156.057 8.167.17 37.236.468 37.236.745 0 .277-29.142.71-37.24.917-5.865.15-10.184.275-19.575.3-1.708.005-9.911.07-11.925.028-1.958-.04-67.91-.22-71.221-.212-13.619.033-34.687-.023-40.666.083-5.979.106-15.45-.434-15.45-.725 0-.292 6.489-.439 15.365-.65z"/>
        </g>
    </g>
</svg>
